<svg width="32" height="32" viewBox="0 0 32 32" fill="none" xmlns="http://www.w3.org/2000/svg">
<path d="M27.0613 15.9386C27.2011 16.078 27.3121 16.2436 27.3878 16.4259C27.4635 16.6082 27.5024 16.8037 27.5024 17.0011C27.5024 17.1986 27.4635 17.394 27.3878 17.5764C27.3121 17.7587 27.2011 17.9243 27.0613 18.0636L17.0613 28.0636C16.9219 28.2035 16.7563 28.3144 16.574 28.3901C16.3917 28.4658 16.1962 28.5048 15.9988 28.5048C15.8013 28.5048 15.6059 28.4658 15.4235 28.3901C15.2412 28.3144 15.0756 28.2035 14.9363 28.0636L4.93626 18.0636C4.79673 17.9241 4.68605 17.7585 4.61053 17.5762C4.53502 17.3939 4.49615 17.1985 4.49615 17.0011C4.49615 16.8038 4.53502 16.6084 4.61053 16.4261C4.68605 16.2438 4.79673 16.0782 4.93626 15.9386C5.07579 15.7991 5.24143 15.6884 5.42374 15.6129C5.60604 15.5374 5.80143 15.4985 5.99876 15.4985C6.19608 15.4985 6.39147 15.5374 6.57378 15.6129C6.75608 15.6884 6.92173 15.7991 7.06126 15.9386L16 24.8749L24.9388 15.9349C25.0783 15.7957 25.2439 15.6853 25.4262 15.6102C25.6084 15.535 25.8037 15.4965 26.0008 15.4968C26.1979 15.4972 26.393 15.5364 26.575 15.6122C26.757 15.688 26.9222 15.7989 27.0613 15.9386ZM14.9363 18.0636C15.0756 18.2035 15.2412 18.3144 15.4235 18.3901C15.6059 18.4658 15.8013 18.5048 15.9988 18.5048C16.1962 18.5048 16.3917 18.4658 16.574 18.3901C16.7563 18.3144 16.9219 18.2035 17.0613 18.0636L27.0613 8.06364C27.2008 7.92411 27.3115 7.75846 27.387 7.57616C27.4625 7.39385 27.5014 7.19846 27.5014 7.00114C27.5014 6.80381 27.4625 6.60842 27.387 6.42612C27.3115 6.24381 27.2008 6.07817 27.0613 5.93864C26.9217 5.79911 26.7561 5.68843 26.5738 5.61291C26.3915 5.5374 26.1961 5.49854 25.9988 5.49854C25.8014 5.49854 25.606 5.5374 25.4237 5.61291C25.2414 5.68843 25.0758 5.79911 24.9363 5.93864L16 14.8749L7.06126 5.93864C6.77946 5.65684 6.39727 5.49854 5.99876 5.49854C5.60024 5.49854 5.21805 5.65684 4.93626 5.93864C4.65446 6.22043 4.49615 6.60262 4.49615 7.00114C4.49615 7.39965 4.65446 7.78184 4.93626 8.06364L14.9363 18.0636Z" fill="#E2E4E9"/>
</svg>
